{
    "asset" : {
        "generator" : "Khronos glTF Blender I/O v1.4.40",
        "version" : "2.0"
    },
    "extensionsUsed" : [
        "KHR_materials_transmission"
    ],
    "scene" : 0,
    "scenes" : [
        {
            "name" : "Scene",
            "nodes" : [
                0,
                1,
                2,
                3,
                4,
                5
            ]
        }
    ],
    "nodes" : [
        {
            "name" : "Light",
            "rotation" : [
                0.16907575726509094,
                0.7558803558349609,
                -0.27217137813568115,
                0.570947527885437
            ],
            "translation" : [
                4.076245307922363,
                5.903861999511719,
                -1.0054539442062378
            ]
        },
        {
            "name" : "Camera",
            "rotation" : [
                0.483536034822464,
                0.33687159419059753,
                -0.20870360732078552,
                0.7804827094078064
            ],
            "translation" : [
                7.358891487121582,
                4.958309173583984,
                6.925790786743164
            ]
        },
        {
            "mesh" : 0,
            "name" : "Cat Eye Glasses_Right",
            "rotation" : [
                -0.06651114672422409,
                0,
                0,
                0.9977856874465942
            ],
            "scale" : [
                0.1297924518585205,
                0.1297924518585205,
                0.1297924518585205
            ],
            "translation" : [
                2.7298145294189453,
                0.8071758151054382,
                -0.43247824907302856
            ]
        },
        {
            "mesh" : 1,
            "name" : "Cat Eye Glasses_Left",
            "rotation" : [
                -0.06651114672422409,
                0,
                0,
                0.9977856874465942
            ],
            "scale" : [
                0.1297924518585205,
                0.1297924518585205,
                0.1297924518585205
            ],
            "translation" : [
                2.7298145294189453,
                0.8071758151054382,
                -0.43247824907302856
            ]
        },
        {
            "mesh" : 2,
            "name" : "Cat Eye Glasses_Lens",
            "rotation" : [
                -0.06651114672422409,
                0,
                0,
                0.9977856874465942
            ],
            "scale" : [
                0.1297924518585205,
                0.1297924518585205,
                0.1297924518585205
            ],
            "translation" : [
                -5.335351943969727,
                -1.5051575899124146,
                1.0369325876235962
            ]
        },
        {
            "mesh" : 3,
            "name" : "Cat Eye Glasses_Frame",
            "rotation" : [
                -0.06651114672422409,
                0,
                0,
                0.9977856874465942
            ],
            "scale" : [
                0.1297924518585205,
                0.1297924518585205,
                0.1297924518585205
            ],
            "translation" : [
                -5.335351943969727,
                -1.5051575899124146,
                1.0369325876235962
            ]
        }
    ],
    "materials" : [
        {
            "doubleSided" : true,
            "name" : "Black Gloss",
            "pbrMetallicRoughness" : {
                "baseColorFactor" : [
                    0.03921568859368563,
                    0.03921568859368563,
                    0.03921568859368563,
                    1
                ],
                "roughnessFactor" : 0.5637969374656677
            }
        },
        {
            "doubleSided" : true,
            "extensions" : {
                "KHR_materials_transmission" : {
                    "transmissionFactor" : 1
                }
            },
            "name" : "Glass",
            "pbrMetallicRoughness" : {
                "baseColorFactor" : [
                    0.800000011920929,
                    0.800000011920929,
                    0.800000011920929,
                    1
                ],
                "metallicFactor" : 0,
                "roughnessFactor" : 0
            }
        }
    ],
    "meshes" : [
        {
            "name" : "Mesh",
            "primitives" : [
                {
                    "attributes" : {
                        "POSITION" : 0,
                        "NORMAL" : 1,
                        "TEXCOORD_0" : 2
                    },
                    "indices" : 3,
                    "material" : 0
                }
            ]
        },
        {
            "name" : "Mesh.001",
            "primitives" : [
                {
                    "attributes" : {
                        "POSITION" : 4,
                        "NORMAL" : 5,
                        "TEXCOORD_0" : 6
                    },
                    "indices" : 7,
                    "material" : 0
                }
            ]
        },
        {
            "name" : "Mesh.002",
            "primitives" : [
                {
                    "attributes" : {
                        "POSITION" : 8,
                        "NORMAL" : 9
                    },
                    "indices" : 10,
                    "material" : 1
                }
            ]
        },
        {
            "name" : "Mesh.003",
            "primitives" : [
                {
                    "attributes" : {
                        "POSITION" : 11,
                        "NORMAL" : 12,
                        "TEXCOORD_0" : 13
                    },
                    "indices" : 14,
                    "material" : 0
                }
            ]
        }
    ],
    "accessors" : [
        {
            "bufferView" : 0,
            "componentType" : 5126,
            "count" : 4495,
            "max" : [
                5.892951011657715,
                2.8632640838623047,
                1.7733596563339233
            ],
            "min" : [
                -9.980636596679688,
                -26.440004348754883,
                -128.16372680664062
            ],
            "type" : "VEC3"
        },
        {
            "bufferView" : 1,
            "componentType" : 5126,
            "count" : 4495,
            "type" : "VEC3"
        },
        {
            "bufferView" : 2,
            "componentType" : 5126,
            "count" : 4495,
            "type" : "VEC2"
        },
        {
            "bufferView" : 3,
            "componentType" : 5123,
            "count" : 10992,
            "type" : "SCALAR"
        },
        {
            "bufferView" : 4,
            "componentType" : 5126,
            "count" : 4473,
            "max" : [
                -114.29729461669922,
                2.8632640838623047,
                1.7733652591705322
            ],
            "min" : [
                -130.17086791992188,
                -26.440004348754883,
                -128.16372680664062
            ],
            "type" : "VEC3"
        },
        {
            "bufferView" : 5,
            "componentType" : 5126,
            "count" : 4473,
            "type" : "VEC3"
        },
        {
            "bufferView" : 6,
            "componentType" : 5126,
            "count" : 4473,
            "type" : "VEC2"
        },
        {
            "bufferView" : 7,
            "componentType" : 5123,
            "count" : 10992,
            "type" : "SCALAR"
        },
        {
            "bufferView" : 8,
            "componentType" : 5126,
            "count" : 503,
            "max" : [
                59.79495620727539,
                21.32758140563965,
                5.647811412811279
            ],
            "min" : [
                -59.79495620727539,
                -23.22276496887207,
                -4.942176342010498
            ],
            "type" : "VEC3"
        },
        {
            "bufferView" : 9,
            "componentType" : 5126,
            "count" : 503,
            "type" : "VEC3"
        },
        {
            "bufferView" : 10,
            "componentType" : 5123,
            "count" : 2316,
            "type" : "SCALAR"
        },
        {
            "bufferView" : 11,
            "componentType" : 5126,
            "count" : 4433,
            "max" : [
                69.35906982421875,
                24.98902130126953,
                7.321684837341309
            ],
            "min" : [
                -69.35906982421875,
                -24.989015579223633,
                -10.395437240600586
            ],
            "type" : "VEC3"
        },
        {
            "bufferView" : 12,
            "componentType" : 5126,
            "count" : 4433,
            "type" : "VEC3"
        },
        {
            "bufferView" : 13,
            "componentType" : 5126,
            "count" : 4433,
            "type" : "VEC2"
        },
        {
            "bufferView" : 14,
            "componentType" : 5123,
            "count" : 15852,
            "type" : "SCALAR"
        }
    ],
    "bufferViews" : [
        {
            "buffer" : 0,
            "byteLength" : 53940,
            "byteOffset" : 0
        },
        {
            "buffer" : 0,
            "byteLength" : 53940,
            "byteOffset" : 53940
        },
        {
            "buffer" : 0,
            "byteLength" : 35960,
            "byteOffset" : 107880
        },
        {
            "buffer" : 0,
            "byteLength" : 21984,
            "byteOffset" : 143840
        },
        {
            "buffer" : 0,
            "byteLength" : 53676,
            "byteOffset" : 165824
        },
        {
            "buffer" : 0,
            "byteLength" : 53676,
            "byteOffset" : 219500
        },
        {
            "buffer" : 0,
            "byteLength" : 35784,
            "byteOffset" : 273176
        },
        {
            "buffer" : 0,
            "byteLength" : 21984,
            "byteOffset" : 308960
        },
        {
            "buffer" : 0,
            "byteLength" : 6036,
            "byteOffset" : 330944
        },
        {
            "buffer" : 0,
            "byteLength" : 6036,
            "byteOffset" : 336980
        },
        {
            "buffer" : 0,
            "byteLength" : 4632,
            "byteOffset" : 343016
        },
        {
            "buffer" : 0,
            "byteLength" : 53196,
            "byteOffset" : 347648
        },
        {
            "buffer" : 0,
            "byteLength" : 53196,
            "byteOffset" : 400844
        },
        {
            "buffer" : 0,
            "byteLength" : 35464,
            "byteOffset" : 454040
        },
        {
            "buffer" : 0,
            "byteLength" : 31704,
            "byteOffset" : 489504
        }
    ],
    "buffers" : [
        {
            "byteLength" : 521208,
            "uri" : "data:application/octet-stream;base64,"
        }
    ]
}
